Coordinates
version=1
nRows=24
nColumns=24
inDegrees=yes

Units are S.I. units (second, meters, Newtons, ...)
Angles are in degrees.

endheader
time	pelvis_tilt	pelvis_list	pelvis_rotation	pelvis_tx	pelvis_ty	pelvis_tz	hip_flexion_r	hip_adduction_r	hip_rotation_r	knee_angle_r	ankle_angle_r	subtalar_angle_r	mtp_angle_r	hip_flexion_l	hip_adduction_l	hip_rotation_l	knee_angle_l	ankle_angle_l	subtalar_angle_l	mtp_angle_l	lumbar_extension	lumbar_bending	lumbar_rotation
      2.98500000	    -11.51142403	     13.18539442	     -0.38793263	     -1.65709237	     -0.04726773	      0.67688520	     21.07918702	    -17.20136592	      2.43193108	    -66.29617925	    -31.59898992	     -5.15355557	     47.30459742	     31.93801894	     15.92272811	      1.73087229	    -32.04862338	     11.37582961	     -9.05704210	    -23.57449606	      9.07047767	    -15.83450073	      0.67890182
      2.99000000	    -11.38418291	     13.17453584	     -0.36820389	     -1.64975851	     -0.04563958	      0.67634891	     21.97145550	    -17.24911591	      2.39058268	    -67.31527048	    -30.83652999	     -6.00964480	     46.70875424	     30.99117799	     16.09074907	      2.13603111	    -31.49691213	     11.47992432	     -9.39446710	    -23.59329338	      9.07314827	    -15.80566651	      0.50053462
      2.99500000	    -11.23594767	     13.09953132	     -0.33398507	     -1.64260324	     -0.04400210	      0.67580373	     22.83477463	    -17.22261501	      2.32536846	    -68.29027256	    -30.01434488	     -6.66497668	     45.65641879	     30.03768667	     16.20519857	      2.60837935	    -30.97678961	     11.59586613	     -9.73610314	    -23.71390396	      9.00707647	    -15.71146453	      0.31295951
      3.00000000	    -11.13339136	     13.07597702	     -0.27455272	     -1.63532952	     -0.04238856	      0.67524172	     23.71387957	    -17.25760138	      2.27719593	    -69.14143259	    -29.30908678	     -7.28367883	     45.18618417	     29.09153578	     16.36953800	      3.09476703	    -30.38266384	     11.68166922	    -10.09241929	    -23.86032319	      9.01643946	    -15.67620845	      0.10159308
      3.00500000	    -11.00721772	     12.96286686	     -0.23008077	     -1.62813221	     -0.04067883	      0.67465361	     24.54037831	    -17.17580625	      2.22152008	    -69.89201478	    -28.68495690	     -7.84255779	     44.50443970	     28.10645983	     16.45181820	      3.65083345	    -29.76536345	     11.72417959	    -10.60310135	    -24.17080575	      8.98348089	    -15.53305731	     -0.10452841
      3.01000000	    -10.88314138	     12.87128654	     -0.15425102	     -1.62094007	     -0.03899610	      0.67406174	     25.34390003	    -17.12404344	      2.14212339	    -70.56974037	    -28.08615693	     -8.36665824	     43.76757064	     27.11090907	     16.55256381	      4.21218813	    -29.13033259	     11.81459490	    -11.04484469	    -24.60469955	      8.94383592	    -15.42269239	     -0.34764630
      3.01500000	    -10.73002086	     12.72347428	     -0.10554715	     -1.61378934	     -0.03731006	      0.67358394	     26.09976717	    -16.97203904	      2.07898832	    -71.20883033	    -27.33219290	     -8.64301600	     42.26477088	     26.10499224	     16.55900422	      4.71011016	    -28.56360145	     12.41836857	    -11.18476772	    -26.16127703	      8.86826516	    -15.25277265	     -0.58325409
      3.02000000	    -10.67438833	     12.64675949	     -0.02332379	     -1.60666508	     -0.03571706	      0.67293032	     26.95205099	    -16.91657584	      2.04345799	    -71.69927235	    -26.99042729	     -9.23680694	     42.15927577	     25.16105400	     16.65984196	      5.29517095	    -27.87093104	     12.38673942	    -11.66332744	    -26.47447068	      8.89461860	    -15.14495592	     -0.81914270
      3.02500000	    -10.56001296	     12.52370563	      0.07552062	     -1.59957253	     -0.03406075	      0.67228406	     27.69740191	    -16.81300219	      1.95194876	    -72.10757329	    -26.65053096	     -9.82782715	     41.75429825	     24.14554816	     16.70822556	      5.90124149	    -27.17998355	     12.41627532	    -12.05334760	    -26.85336058	      8.83935103	    -14.99395435	     -1.10859950
      3.03000000	    -10.44507770	     12.39450265	      0.17143843	     -1.59250744	     -0.03244500	      0.67166231	     28.42586652	    -16.68979195	      1.85985546	    -72.45234702	    -26.31746868	    -10.41658656	     41.17122838	     23.12844908	     16.72994645	      6.48577734	    -26.48469194	     12.48256030	    -12.37329158	    -27.25890714	      8.77859275	    -14.83412989	     -1.39674312
      3.03500000	    -10.34004180	     12.25604799	      0.26728089	     -1.58548047	     -0.03088168	      0.67107080	     29.14863682	    -16.54355021	      1.76808138	    -72.73016982	    -26.00409416	    -11.00946555	     40.51165461	     22.12437218	     16.72190929	      7.04509930	    -25.78464255	     12.56048005	    -12.65628660	    -27.66774009	      8.72214633	    -14.66685598	     -1.68807816
      3.04000000	    -10.23716381	     12.11100768	      0.36225846	     -1.57849647	     -0.02937805	      0.67049422	     29.85725753	    -16.38169196	      1.67127948	    -72.94267993	    -25.69999341	    -11.62476515	     39.79853447	     21.12820406	     16.68998270	      7.58422406	    -25.08458214	     12.64795632	    -12.91898295	    -28.09278744	      8.65984075	    -14.49174139	     -1.98762311
      3.04500000	    -10.10804202	     11.95623063	      0.43839771	     -1.57154942	     -0.02795613	      0.67000794	     30.52837903	    -16.18712091	      1.57596241	    -73.14196372	    -25.16746893	    -12.04357040	     38.32456928	     20.13503634	     16.61569077	      8.04145612	    -24.44885256	     13.17201050	    -12.93711766	    -29.44341497	      8.56365549	    -14.30843020	     -2.28627646
      3.05000000	     -9.97757815	     11.78824790	      0.54510332	     -1.56462283	     -0.02653026	      0.66939034	     31.15504697	    -16.00686277	      1.43840035	    -73.20118797	    -24.91405456	    -12.73095018	     37.67856640	     19.11749119	     16.54937316	      8.62117664	    -23.76947094	     13.50936141	    -13.15133291	    -30.66252736	      8.45456086	    -14.10351071	     -2.62603705
      3.05500000	     -9.96939270	     11.64625047	      0.59315864	     -1.55773573	     -0.02534663	      0.66881567	     31.94256095	    -15.80171474	      1.41974234	    -73.20774285	    -24.69634809	    -13.35650290	     37.37156257	     18.25155313	     16.47055695	      9.08444425	    -23.06256855	     13.45417705	    -13.50774929	    -30.87992246	      8.49504092	    -13.90481851	     -2.87550186
      3.06000000	     -9.83939016	     11.46768720	      0.70182692	     -1.55095546	     -0.02412909	      0.66824647	     32.54277064	    -15.60342461	      1.25582539	    -73.15846141	    -24.40730225	    -14.10008474	     36.59354886	     17.27449943	     16.36333503	      9.60077648	    -22.41414659	     13.51841467	    -13.76518957	    -31.23238781	      8.35469696	    -13.69222295	     -3.25502937
      3.06500000	     -9.73737671	     11.27016162	      0.74280709	     -1.54406969	     -0.02301043	      0.66779130	     33.16849588	    -15.33156005	      1.16506213	    -73.07664370	    -23.92483925	    -14.49269473	     35.20900413	     16.34109595	     16.19428530	     10.03135310	    -21.79406431	     13.84724814	    -13.81438148	    -32.07232964	      8.28478815	    -13.44351359	     -3.51059487
      3.07000000	     -9.67429840	     11.06924571	      0.83014952	     -1.53728968	     -0.02201287	      0.66719003	     33.80608177	    -15.09532046	      1.03050863	    -72.88022786	    -23.68507924	    -15.16004952	     34.73663950	     15.45950077	     16.04712756	     10.55704314	    -21.17929788	     13.87130403	    -14.06440614	    -32.33214625	      8.22762089	    -13.18890278	     -3.84059648
      3.07500000	     -9.56704086	     10.83783767	      0.89582695	     -1.53053969	     -0.02105476	      0.66666321	     34.37521545	    -14.81130929	      0.88546905	    -72.63550220	    -23.35795549	    -15.71717215	     33.87166540	     14.55380543	     15.84790423	     11.05266466	    -20.60490162	     13.98048841	    -14.20806481	    -32.60470982	      8.11690922	    -12.90078501	     -4.16296223
      3.08000000	     -9.48452525	     10.59755484	      0.94537325	     -1.52387765	     -0.02024183	      0.66616771	     34.96921982	    -14.49862701	      0.76693058	    -72.34869499	    -22.98837561	    -16.18244489	     32.93079722	     13.71137590	     15.62897007	     11.51049904	    -20.07799808	     14.10603814	    -14.34352144	    -32.84251246	      8.02005190	    -12.60124340	     -4.48716038
      3.08500000	     -9.40928740	     10.36356311	      0.99769356	     -1.51721808	     -0.01951270	      0.66569116	     35.54973243	    -14.19536162	      0.64416183	    -72.00063257	    -22.60338925	    -16.58763042	     31.97814163	     12.89157078	     15.40441480	     11.93841998	    -19.57072175	     14.23685106	    -14.42825336	    -33.04467989	      7.93126261	    -12.30957112	     -4.79190264
      3.09000000	     -9.33626945	     10.15353148	      1.03993529	     -1.51059404	     -0.01888491	      0.66524739	     36.12797214	    -13.90483949	      0.55013171	    -71.61144963	    -22.19003724	    -16.89857128	     30.88582404	     12.09190116	     15.19165443	     12.35118709	    -19.08749120	     14.40377962	    -14.44890364	    -33.26922277	      7.84259389	    -12.03693838	     -5.05772851
      3.09500000	     -9.27617682	      9.91219856	      1.11832191	     -1.50400323	     -0.01831228	      0.66475537	     36.67134482	    -13.61098159	      0.39928534	    -71.12966549	    -21.80078465	    -17.24597908	     30.05932773	     11.33516534	     14.94709001	     12.69437016	    -18.64021828	     14.51702720	    -14.49995677	    -33.41688338	      7.75247045	    -11.73730682	     -5.39075449
      3.10000000	     -9.20117362	      9.69689529	      1.17564534	     -1.49747324	     -0.01782570	      0.66434393	     37.19779143	    -13.32169720	      0.28778869	    -70.61078868	    -21.37748871	    -17.49905483	     29.08133172	     10.58158886	     14.71255444	     13.00305262	    -18.21392536	     14.66752075	    -14.48805778	    -33.55437452	      7.63744341	    -11.46505474	     -5.68938945
